<?xml version="1.0" encoding="utf-8"?>
<!-- Generated by Mocodo 4.1.1 -->
<svg width="361" height="348" viewBox="0 0 361 348" xmlns="http://www.w3.org/2000/svg">
<rect x="0" y="0" width="361" height="348" fill="#ffffbf" stroke="none" stroke-width="0"/>

<!-- Association PARTICIPER -->
<g>
	<line x1="185" y1="195" x2="60" y2="195" stroke="#74add1" stroke-width="2"/>
	<line x1="60" y1="305" x2="60" y2="195" stroke="#74add1" stroke-width="2"/>
	<g>
		<path d="M82 170 a14 14 90 0 1 14 14 V195 h-72 V184 a14 14 90 0 1 14 -14" fill="#abd9e9" stroke="#abd9e9" stroke-width="0"/>
		<path d="M96 195 v11 a14 14 90 0 1 -14 14 H38 a14 14 90 0 1 -14 -14 V195 H72" fill="#e0f3f8" stroke="#e0f3f8" stroke-width="0"/>
		<rect x="24" y="170" width="72" height="50" fill="none" rx="14" stroke="#74add1" stroke-width="2"/>
		<line x1="24" y1="195" x2="96" y2="195" stroke="#74add1" stroke-width="1"/>
		<text x="31" y="187.75" fill="#000000" font-family="Verdana" font-size="12">participer</text>
	</g>
	<text x="102" y="212" fill="#d73027" font-family="Verdana" font-size="12">1,1</text>
	<text x="65" y="263" fill="#d73027" font-family="Verdana" font-size="12">0,N</text>
</g>

<!-- Association APPARTENIR -->
<g>
	<line x1="185" y1="195" x2="313" y2="195" stroke="#74add1" stroke-width="2"/>
	<line x1="313" y1="77" x2="313" y2="195" stroke="#74add1" stroke-width="2"/>
	<g>
		<path d="M338 170 a14 14 90 0 1 14 14 V195 h-78 V184 a14 14 90 0 1 14 -14" fill="#abd9e9" stroke="#abd9e9" stroke-width="0"/>
		<path d="M352 195 v11 a14 14 90 0 1 -14 14 H288 a14 14 90 0 1 -14 -14 V195 H78" fill="#e0f3f8" stroke="#e0f3f8" stroke-width="0"/>
		<rect x="274" y="170" width="78" height="50" fill="none" rx="14" stroke="#74add1" stroke-width="2"/>
		<line x1="274" y1="195" x2="352" y2="195" stroke="#74add1" stroke-width="1"/>
		<text x="282" y="187.75" fill="#000000" font-family="Verdana" font-size="12">appartenir</text>
	</g>
	<text x="247" y="212" fill="#d73027" font-family="Verdana" font-size="12">0,N</text>
	<text x="318" y="162" fill="#d73027" font-family="Verdana" font-size="12">1,1</text>
</g>

<!-- Entity PLAYERS -->
<g>
	<g>
		<rect x="274" y="9" width="78" height="25" fill="#fdae61" stroke="none" stroke-width="0" opacity="1"/>
		<rect x="274" y="34" width="78" height="111" fill="#fee090" stroke="none" stroke-width="0" opacity="1"/>
		<rect x="274" y="9" width="78" height="136" fill="none" stroke="#f46d43" stroke-width="2" opacity="1"/>
		<line x1="274" y1="34" x2="352" y2="34" stroke="#f46d43" stroke-width="1"/>
	</g>
	<text x="286" y="26.75" fill="#000000" font-family="Verdana" font-size="12">PLAYERS</text>
	<text x="279" y="51.8" fill="#000000" font-family="Verdana" font-size="12">id</text>
	<line x1="279" y1="54" x2="291" y2="54" stroke="#000000" stroke-width="1"/>
	<text x="279" y="68.8" fill="#000000" font-family="Verdana" font-size="12">name</text>
	<text x="279" y="85.8" fill="#000000" font-family="Verdana" font-size="12">age</text>
	<text x="279" y="102.8" fill="#000000" font-family="Verdana" font-size="12">position</text>
	<text x="279" y="119.8" fill="#000000" font-family="Verdana" font-size="12">nationality</text>
	<text x="279" y="136.8" fill="#000000" font-family="Verdana" font-size="12">description</text>
</g>

<!-- Entity SOCCER_CLUBS -->
<g>
	<g>
		<rect x="128" y="144" width="114" height="25" fill="#fdae61" stroke="none" stroke-width="0" opacity="1"/>
		<rect x="128" y="169" width="114" height="77" fill="#fee090" stroke="none" stroke-width="0" opacity="1"/>
		<rect x="128" y="144" width="114" height="102" fill="none" stroke="#f46d43" stroke-width="2" opacity="1"/>
		<line x1="128" y1="169" x2="242" y2="169" stroke="#f46d43" stroke-width="1"/>
	</g>
	<text x="136" y="161.75" fill="#000000" font-family="Verdana" font-size="12">SOCCER_CLUBS</text>
	<text x="133" y="186.8" fill="#000000" font-family="Verdana" font-size="12">id</text>
	<line x1="133" y1="189" x2="145" y2="189" stroke="#000000" stroke-width="1"/>
	<text x="133" y="203.8" fill="#000000" font-family="Verdana" font-size="12">name</text>
	<text x="133" y="220.8" fill="#000000" font-family="Verdana" font-size="12">date_of_creation</text>
	<text x="133" y="237.8" fill="#000000" font-family="Verdana" font-size="12">country</text>
</g>

<!-- Entity CHAMPIONNAT -->
<g>
	<g>
		<rect x="9" y="271" width="102" height="25" fill="#fdae61" stroke="none" stroke-width="0" opacity="1"/>
		<rect x="9" y="296" width="102" height="43" fill="#fee090" stroke="none" stroke-width="0" opacity="1"/>
		<rect x="9" y="271" width="102" height="68" fill="none" stroke="#f46d43" stroke-width="2" opacity="1"/>
		<line x1="9" y1="296" x2="111" y2="296" stroke="#f46d43" stroke-width="1"/>
	</g>
	<text x="14" y="288.75" fill="#000000" font-family="Verdana" font-size="12">CHAMPIONNAT</text>
	<text x="14" y="313.8" fill="#000000" font-family="Verdana" font-size="12">id</text>
	<line x1="14" y1="316" x2="26" y2="316" stroke="#000000" stroke-width="1"/>
	<text x="14" y="330.8" fill="#000000" font-family="Verdana" font-size="12">name</text>
</g>
</svg>